<svg xmlns="http://www.w3.org/2000/svg" viewBox="0 0 48 48"><path fill="#333" d="M31 5H11v11l2-1V7h16v10h10v24H24v2h17V15L31 5zm0 10V7.8l7.2 7.2H31z"/><path fill="#333" d="M16 33h2v-2h-2c-.9.1-1.8-.3-2.4-1H16v-2h-3v-1h3v-2h-2.4c.6-.7 1.5-1.1 2.4-1h2v-2h-2c-2.1-.1-4 1.1-4.7 3H10v2h1v1h-1v2h1.3c.7 1.9 2.6 3.1 4.7 3z"/><path fill="#333" d="M25 27c0-5.5-4.5-10-10-10S5 21.5 5 27c0 3.3 1.6 6.2 4 8v11l6-4.8 6 4.8V35c2.4-1.8 4-4.7 4-8zM7 27c0-4.4 3.6-8 8-8s8 3.6 8 8-3.6 8-8 8-8-3.6-8-8zm12 14.8l-4-3.2-4 3.2v-5.7c1.2.5 2.6.8 4 .8s2.8-.3 4-.8v5.7z"/></svg>